# xmcd
#
# Track frame offsets:
#	150
#	20889
#	49283
#	78163
#	98934
#	139301
#	150037
#	255378
#
# Disc length: 3801 seconds
#
# Revision: 1
# Processed by: cddbd v1.5.2PL0 Copyright (c) Steve Scherf et al.
# Submitted via: audiograbber 1.83.01
#
DISCID=5d0ed708
DTITLE=Grateful Dead - 71-11-20 Pauley Pavilion, UCLA, Los Angeles CA
DYEAR=1900
DGENRE=
TTITLE0=Tuning and Banter
TTITLE1=Playing In The Band
TTITLE2=Casey Jones
TTITLE3=One More Saturday Night
TTITLE4=Truckin'
TTITLE5=Drums
TTITLE6=The Other One
TTITLE7=Ramble On Rose
EXTD=
EXTT0=
EXTT1=
EXTT2=
EXTT3=
EXTT4=
EXTT5=
EXTT6=
EXTT7=
PLAYORDER=
